<svg width="500" height="400" viewBox="0 0 500 400" fill="none" xmlns="http://www.w3.org/2000/svg">
  <!-- 背景图形 -->
  <circle cx="250" cy="200" r="150" fill="#E6F7FF" opacity="0.5"/>
  <circle cx="250" cy="200" r="100" fill="#BAE7FF" opacity="0.3"/>
  
  <!-- 医疗十字标志 -->
  <g transform="translate(200,150) scale(0.8)">
    <rect x="90" y="40" width="20" height="100" rx="10" fill="#1890FF"/>
    <rect x="50" y="80" width="100" height="20" rx="10" fill="#1890FF"/>
  </g>
  
  <!-- 心电图线 -->
  <path d="M50,200 L100,200 L120,150 L140,250 L160,180 L180,220 L200,200 L250,200 L270,150 L290,250 L310,180 L330,220 L350,200 L400,200"
        stroke="#1890FF" stroke-width="4" fill="none"/>
  
  <!-- 装饰圆点 -->
  <circle cx="150" cy="100" r="8" fill="#1890FF" opacity="0.6"/>
  <circle cx="350" cy="300" r="12" fill="#1890FF" opacity="0.4"/>
  <circle cx="400" cy="150" r="6" fill="#1890FF" opacity="0.5"/>
  <circle cx="100" cy="280" r="10" fill="#1890FF" opacity="0.3"/>
  
  <!-- 医疗图标 - 听诊器 -->
  <g transform="translate(280,100) scale(0.6)">
    <circle cx="60" cy="40" r="20" stroke="#1890FF" stroke-width="8" fill="white"/>
    <path d="M60,60 C60,60 60,100 60,120 C60,140 40,160 40,180 C40,200 60,200 60,180"
          stroke="#1890FF" stroke-width="8" fill="none"/>
  </g>
</svg> 